<?xml version="1.0" encoding="utf-8"?>
<svg width="26px" height="15px" viewBox="0 0 26 15" version="1.1" xmlns:xlink="http://www.w3.org/1999/xlink" xmlns="http://www.w3.org/2000/svg">
  <g id="编组-15" transform="translate(1 1)">
    <path d="M6.499 0L17.501 0Q17.6605 0 17.8199 0.00782833Q17.9792 0.0156567 18.138 0.0312945Q18.2968 0.0469323 18.4546 0.0703418Q18.6124 0.0937514 18.7689 0.124876Q18.9254 0.156001 19.0801 0.194767Q19.2349 0.233532 19.3876 0.279845Q19.5402 0.326157 19.6904 0.379905Q19.8407 0.433653 19.9881 0.494707Q20.1355 0.555761 20.2797 0.623974Q20.4239 0.692186 20.5646 0.767394Q20.7053 0.842601 20.8422 0.924622Q20.979 1.00664 21.1116 1.09528Q21.2443 1.18392 21.3724 1.27895Q21.5006 1.37399 21.6239 1.47521Q21.7472 1.57642 21.8655 1.68356Q21.9837 1.7907 22.0965 1.90351Q22.2093 2.01633 22.3164 2.13454Q22.4236 2.25275 22.5248 2.37608Q22.626 2.49941 22.721 2.62755Q22.8161 2.7557 22.9047 2.88835Q22.9934 3.021 23.0754 3.15785Q23.1574 3.29469 23.2326 3.43539Q23.3078 3.5761 23.376 3.72032Q23.4442 3.86454 23.5053 4.01194Q23.5663 4.15934 23.6201 4.30955Q23.6738 4.45977 23.7202 4.61244Q23.7665 4.76511 23.8052 4.91987Q23.844 5.07463 23.8751 5.23111Q23.9062 5.38758 23.9297 5.5454Q23.9531 5.70321 23.9687 5.86199Q23.9843 6.02076 23.9922 6.18011Q24 6.33946 24 6.499L24 6.501Q24 6.66054 23.9922 6.81989Q23.9843 6.97924 23.9687 7.13801Q23.9531 7.29679 23.9297 7.4546Q23.9062 7.61241 23.8751 7.76889Q23.844 7.92537 23.8052 8.08013Q23.7665 8.23489 23.7202 8.38756Q23.6738 8.54023 23.6201 8.69045Q23.5663 8.84066 23.5053 8.98806Q23.4442 9.13546 23.376 9.27968Q23.3078 9.4239 23.2326 9.56461Q23.1574 9.70531 23.0754 9.84215Q22.9934 9.979 22.9047 10.1116Q22.8161 10.2443 22.721 10.3724Q22.626 10.5006 22.5248 10.6239Q22.4236 10.7472 22.3164 10.8655Q22.2093 10.9837 22.0965 11.0965Q21.9837 11.2093 21.8655 11.3164Q21.7472 11.4236 21.6239 11.5248Q21.5006 11.626 21.3724 11.721Q21.2443 11.8161 21.1116 11.9047Q20.979 11.9934 20.8422 12.0754Q20.7053 12.1574 20.5646 12.2326Q20.4239 12.3078 20.2797 12.376Q20.1355 12.4442 19.9881 12.5053Q19.8407 12.5663 19.6904 12.6201Q19.5402 12.6738 19.3876 12.7202Q19.2349 12.7665 19.0801 12.8052Q18.9254 12.844 18.7689 12.8751Q18.6124 12.9062 18.4546 12.9297Q18.2968 12.9531 18.138 12.9687Q17.9792 12.9843 17.8199 12.9922Q17.6605 13 17.501 13L6.499 13Q6.33946 13 6.18011 12.9922Q6.02076 12.9843 5.86199 12.9687Q5.70321 12.9531 5.5454 12.9297Q5.38758 12.9062 5.23111 12.8751Q5.07463 12.844 4.91987 12.8052Q4.76511 12.7665 4.61244 12.7202Q4.45977 12.6738 4.30955 12.6201Q4.15934 12.5663 4.01194 12.5053Q3.86454 12.4442 3.72032 12.376Q3.5761 12.3078 3.43539 12.2326Q3.29469 12.1574 3.15785 12.0754Q3.021 11.9934 2.88835 11.9047Q2.7557 11.8161 2.62755 11.721Q2.49941 11.626 2.37608 11.5248Q2.25275 11.4236 2.13454 11.3164Q2.01633 11.2093 1.90351 11.0965Q1.7907 10.9837 1.68356 10.8655Q1.57642 10.7472 1.47521 10.6239Q1.37399 10.5006 1.27895 10.3724Q1.18392 10.2443 1.09528 10.1116Q1.00664 9.979 0.924622 9.84215Q0.842601 9.70531 0.767394 9.56461Q0.692186 9.4239 0.623974 9.27968Q0.555761 9.13546 0.494707 8.98806Q0.433653 8.84066 0.379905 8.69045Q0.326157 8.54023 0.279845 8.38756Q0.233532 8.23489 0.194767 8.08013Q0.156001 7.92537 0.124876 7.76889Q0.0937514 7.61241 0.0703419 7.4546Q0.0469323 7.29679 0.0312945 7.13801Q0.0156567 6.97924 0.00782833 6.81989Q0 6.66054 0 6.501L0 6.499Q0 6.33946 0.00782833 6.18011Q0.0156567 6.02076 0.0312945 5.86199Q0.0469323 5.70321 0.0703418 5.5454Q0.0937514 5.38758 0.124876 5.23111Q0.156001 5.07463 0.194767 4.91987Q0.233532 4.76511 0.279845 4.61244Q0.326157 4.45977 0.379905 4.30955Q0.433653 4.15934 0.494707 4.01194Q0.555761 3.86454 0.623974 3.72032Q0.692186 3.5761 0.767394 3.43539Q0.842601 3.29469 0.924622 3.15785Q1.00664 3.021 1.09528 2.88835Q1.18392 2.7557 1.27895 2.62755Q1.37399 2.49941 1.47521 2.37608Q1.57642 2.25275 1.68356 2.13454Q1.7907 2.01633 1.90351 1.90351Q2.01633 1.7907 2.13454 1.68356Q2.25275 1.57642 2.37608 1.47521Q2.49941 1.37399 2.62755 1.27895Q2.7557 1.18392 2.88835 1.09528Q3.021 1.00664 3.15785 0.924622Q3.29469 0.842601 3.43539 0.767394Q3.5761 0.692186 3.72032 0.623974Q3.86454 0.555761 4.01194 0.494707Q4.15934 0.433653 4.30955 0.379905Q4.45977 0.326157 4.61244 0.279845Q4.76511 0.233532 4.91987 0.194767Q5.07463 0.156001 5.23111 0.124876Q5.38758 0.0937514 5.5454 0.0703419Q5.70321 0.0469323 5.86199 0.0312945Q6.02076 0.0156567 6.18011 0.00782833Q6.33946 0 6.499 0L6.499 0Z" id="矩形" fill="#275BFF" fill-rule="evenodd" stroke="none" />
    <path d="M0 0L3.53011 3L7 0.050873" transform="matrix(1 0 0 -1 8.75 8)" id="Stroke-1备份-2" fill="none" fill-rule="evenodd" stroke="#FFFFFF" stroke-width="2" />
  </g>
</svg>