<?xml version="1.0" encoding="utf-8"?>
<svg width="32px" height="24px" viewBox="0 0 32 24" version="1.1" xmlns:xlink="http://www.w3.org/1999/xlink" xmlns="http://www.w3.org/2000/svg">
  <g id="编组-10" transform="translate(0 10)">
    <path d="M0 0L32 0L32 14L0 14L0 0Z" id="矩形备份-5" fill="#30384B" fill-rule="evenodd" stroke="none" />
    <g id="MAX" fill="#FFFFFF" transform="translate(4 1)">
      <path d="M1.93848 2.67969L4.17969 5.37012L6.4209 2.67969L7.59766 2.67969L7.59766 9.50098L6.2793 9.50098L6.2793 4.71094L6.24023 4.71094L4.26758 7.11328L4.08203 7.11328L2.10938 4.71094L2.07031 4.71094L2.07031 9.50098L0.751953 9.50098L0.751953 2.67969L1.93848 2.67969ZM12.5586 2.67969L15.5713 9.50098L14.1797 9.50098L13.4717 7.84082L10.4395 7.84082L9.78027 9.50098L8.39844 9.50098L11.2109 2.67969L12.5586 2.67969ZM19.4287 4.98926L17.5488 2.67969L15.8887 2.67969L18.5889 5.9707L15.6982 9.50098L17.3584 9.50098L19.4287 6.95215L21.499 9.50098L23.1689 9.50098L20.249 5.9707L22.9199 2.67969L21.2793 2.67969L19.4287 4.98926ZM10.8398 6.83984L13.042 6.83984L11.8896 4.13965L10.8398 6.83984Z" />
    </g>
  </g>
  <g id="Balance" fill="#30384B" transform="translate(2 0)">
    <path d="M0.59375 6.87109L0.59375 1.12891L3.11719 1.12891Q3.85156 1.12891 4.30078 1.50586Q4.75 1.88281 4.75 2.5Q4.75 3.21484 4.21875 3.61719Q4.09766 3.71094 3.95703 3.77734Q4.24219 3.87891 4.45313 4.03125Q5.01563 4.44141 5.01563 5.16797Q5.01563 5.96875 4.4668 6.41992Q3.91797 6.87109 2.94141 6.87109L0.59375 6.87109ZM10.3203 1.12891L10.3203 6.87109L11.0234 6.87109L11.0234 1.12891L10.3203 1.12891ZM1.37109 1.79297L1.37109 3.57422L2.75781 3.57422Q3.39063 3.57422 3.68359 3.3457Q3.97656 3.11719 3.97656 2.625Q3.97656 2.19531 3.70703 1.99414Q3.4375 1.79297 2.85938 1.79297L1.37109 1.79297ZM6.95703 6.98438Q6.34375 6.98438 5.98438 6.65625Q5.625 6.32813 5.625 5.76953Q5.625 5.20703 5.96289 4.875Q6.30078 4.54297 6.94922 4.46094L7.90625 4.33984Q8.02344 4.32813 8.12891 4.30078Q8.26563 4.26563 8.33984 4.16016Q8.41406 4.05469 8.41406 3.89453L8.41406 3.85938Q8.41406 3.52344 8.16016 3.33398Q7.90625 3.14453 7.45313 3.14453Q7.01953 3.14453 6.77539 3.3457Q6.53125 3.54688 6.48047 3.94531L5.83203 3.94531Q5.88281 3.25781 6.31641 2.91211Q6.75 2.56641 7.55859 2.56641Q8.32031 2.56641 8.71875 2.89648Q9.11719 3.22656 9.11719 3.85938L9.11719 6.15625Q9.11719 6.26172 9.18164 6.32617Q9.24609 6.39063 9.35547 6.39063Q9.38672 6.39063 9.44727 6.38281Q9.50781 6.375 9.57813 6.35938L9.57813 6.86719Q9.47656 6.90625 9.36328 6.92969Q9.25 6.95313 9.17188 6.95313Q8.77344 6.95313 8.59375 6.73438Q8.47656 6.58984 8.42578 6.32422Q8.34766 6.42188 8.24609 6.51172Q7.71875 6.98438 6.95703 6.98438ZM13.1836 6.98438Q12.5703 6.98438 12.2109 6.65625Q11.8516 6.32813 11.8516 5.76953Q11.8516 5.20703 12.1895 4.875Q12.5273 4.54297 13.1758 4.46094L14.1328 4.33984Q14.25 4.32813 14.3555 4.30078Q14.4922 4.26563 14.5664 4.16016Q14.6406 4.05469 14.6406 3.89453L14.6406 3.85938Q14.6406 3.52344 14.3867 3.33398Q14.1328 3.14453 13.6797 3.14453Q13.2461 3.14453 13.002 3.3457Q12.7578 3.54688 12.707 3.94531L12.0586 3.94531Q12.1094 3.25781 12.543 2.91211Q12.9766 2.56641 13.7852 2.56641Q14.5469 2.56641 14.9453 2.89648Q15.3438 3.22656 15.3438 3.85938L15.3438 6.15625Q15.3438 6.26172 15.4082 6.32617Q15.4727 6.39063 15.582 6.39063Q15.6133 6.39063 15.6738 6.38281Q15.7344 6.375 15.8047 6.35938L15.8047 6.86719Q15.7031 6.90625 15.5898 6.92969Q15.4766 6.95313 15.3984 6.95313Q15 6.95313 14.8203 6.73438Q14.7031 6.58984 14.6523 6.32422Q14.5742 6.42188 14.4727 6.51172Q13.9453 6.98438 13.1836 6.98438ZM16.5313 2.69141L16.5313 6.87109L17.2344 6.87109L17.2344 4.63281Q17.2344 3.97656 17.5313 3.5918Q17.8281 3.20703 18.3359 3.20703Q18.8125 3.20703 19.0254 3.45117Q19.2383 3.69531 19.2383 4.24609L19.2383 6.87109L19.9414 6.87109L19.9414 4.00781Q19.9414 3.31641 19.5664 2.94141Q19.1914 2.56641 18.5 2.56641Q17.8125 2.56641 17.3555 3.10156L17.1992 3.30859L17.1992 2.69141L16.5313 2.69141ZM24.2773 5.36719Q24.168 6.15625 23.7188 6.57031Q23.2695 6.98438 22.5234 6.98438Q21.6914 6.98438 21.1953 6.38672Q20.6992 5.78906 20.6992 4.77734Q20.6992 3.76563 21.2129 3.16602Q21.7266 2.56641 22.5938 2.56641Q23.3477 2.56641 23.7969 2.97852Q24.2461 3.39063 24.2773 4.11328L23.6016 4.11328Q23.5586 3.66406 23.2891 3.41797Q23.0195 3.17188 22.5703 3.17188Q22.0391 3.17188 21.7364 3.59961Q21.4337 4.02734 21.4337 4.77734Q21.4337 5.57422 21.7149 5.97656Q21.9962 6.37891 22.5508 6.37891Q22.9609 6.37891 23.2363 6.11523Q23.5117 5.85156 23.6016 5.36719L24.2773 5.36719ZM25.2891 6.42188Q25.7969 6.98438 26.6836 6.98438Q27.4219 6.98438 27.8906 6.62305Q28.3594 6.26172 28.5156 5.57422L27.8203 5.57422Q27.754 5.92578 27.4533 6.15234Q27.1527 6.37891 26.7505 6.37891Q26.1103 6.37891 25.8136 5.98047Q25.5715 5.65234 25.5286 5.02734L28.5815 5.02734L28.5898 4.77734Q28.5898 3.78516 28.0859 3.17578Q27.582 2.56641 26.7617 2.56641Q25.8555 2.56641 25.3184 3.18945Q24.7813 3.8125 24.7813 4.86719Q24.7813 5.85938 25.2891 6.42188ZM27.5679 3.55469Q27.8258 3.87891 27.8571 4.46094L25.5286 4.46094Q25.5833 3.93359 25.845 3.60938Q26.1771 3.19531 26.7319 3.19531Q27.2828 3.19531 27.5679 3.55469ZM1.37109 4.20313L1.37109 6.20703L2.95313 6.20703Q3.62109 6.20703 3.93164 5.94922Q4.24219 5.69141 4.24219 5.13672Q4.24219 4.65234 3.91797 4.42773Q3.59375 4.20313 2.89844 4.20313L1.37109 4.20313ZM8.41406 5.21484L8.41406 4.76172Q8.21875 4.85547 7.98047 4.89063L7.33594 4.98438Q6.82813 5.05469 6.59375 5.2207Q6.35938 5.38672 6.35938 5.67188Q6.35938 6.02344 6.55078 6.21289Q6.74219 6.40234 7.09375 6.40234Q7.64844 6.40234 8.03125 6.10156Q8.29297 5.89063 8.37891 5.625Q8.39453 5.57422 8.40234 5.46484Q8.41406 5.35156 8.41406 5.21484ZM14.6406 5.21484L14.6406 4.76172Q14.4453 4.85547 14.207 4.89063L13.5625 4.98438Q13.0547 5.05469 12.8203 5.2207Q12.5859 5.38672 12.5859 5.67188Q12.5859 6.02344 12.7773 6.21289Q12.9688 6.40234 13.3203 6.40234Q13.875 6.40234 14.2578 6.10156Q14.5195 5.89063 14.6055 5.625Q14.6211 5.57422 14.6289 5.46484Q14.6406 5.35156 14.6406 5.21484Z" />
  </g>
</svg>